<?xml version="1.0" standalone="no"?>
<!DOCTYPE svg PUBLIC "-//W3C//DTD SVG 20010904//EN"
 "http://www.w3.org/TR/2001/REC-SVG-20010904/DTD/svg10.dtd">
<svg version="1.0" xmlns="http://www.w3.org/2000/svg"
 width="317.000000pt" height="400.000000pt" viewBox="0 0 317.000000 400.000000"
 preserveAspectRatio="xMidYMid meet">
<metadata>
Created by potrace 1.15, written by Peter Selinger 2001-2017
</metadata>
<g transform="translate(0.000000,400.000000) scale(0.100000,-0.100000)"
fill="rgb(194, 37, 73)" stroke="none">
<path d="M49 3921 c-19 -20 -29 -40 -29 -60 0 -59 16 -80 87 -114 61 -29 68
-35 68 -62 0 -41 -34 -56 -103 -48 -52 6 -54 5 -50 -17 4 -30 53 -44 123 -36
65 7 95 39 95 100 0 54 -24 86 -76 105 -61 21 -84 39 -84 66 0 34 32 48 96 43
50 -4 54 -3 54 18 0 28 -17 34 -92 34 -53 0 -63 -3 -89 -29z"/>
<path d="M307 3943 c-16 -4 -17 -19 -15 -176 l3 -172 33 -3 32 -3 0 65 0 66
29 -6 c40 -8 98 13 118 42 21 33 21 115 -1 148 -9 15 -28 31 -42 36 -25 10
-124 12 -157 3z"/>
<path d="M580 3771 l0 -181 30 0 30 0 -2 178 -3 177 -27 3 -28 3 0 -180z"/>
<path d="M700 3770 l0 -180 100 0 100 0 0 25 c0 24 -2 25 -70 25 l-70 0 0 155
0 155 -30 0 -30 0 0 -180z"/>
<path d="M940 3770 l0 -180 100 0 100 0 0 25 c0 24 -2 25 -70 25 l-70 0 0 155
0 155 -30 0 -30 0 0 -180z"/>
<path d="M1340 3893 c-28 -74 -70 -240 -70 -276 0 -25 3 -28 27 -25 19 2 29
10 31 23 10 66 9 65 67 65 l54 0 7 -45 c6 -41 9 -45 35 -45 24 0 29 4 29 24 0
32 -45 208 -71 279 -20 54 -23 57 -55 57 -31 0 -34 -3 -54 -57z"/>
<path d="M1530 3941 c0 -27 34 -168 61 -253 l31 -98 38 0 38 0 31 98 c36 112
64 240 55 253 -3 5 -16 9 -29 9 -20 0 -25 -6 -30 -37 -11 -60 -43 -196 -53
-223 l-10 -25 -12 30 c-10 25 -38 143 -56 233 -3 17 -11 22 -34 22 -17 0 -30
-4 -30 -9z"/>
<path d="M1920 3922 c0 -33 39 -189 68 -272 18 -54 20 -55 57 -55 37 0 39 1
57 55 29 82 68 239 68 271 0 26 -4 29 -30 29 -24 0 -30 -4 -30 -22 0 -29 -25
-146 -46 -218 -15 -51 -17 -53 -26 -30 -5 14 -22 79 -37 145 -26 115 -28 120
-54 123 -24 3 -27 0 -27 -26z"/>
<path d="M2220 3771 l0 -181 30 0 30 0 -2 178 -3 177 -27 3 -28 3 0 -180z"/>
<path d="M2358 3943 c-16 -4 -18 -21 -18 -179 l0 -174 79 0 c138 0 162 23 169
156 8 153 -32 205 -155 203 -32 -1 -66 -3 -75 -6z m147 -63 c21 -23 32 -116
21 -174 -9 -50 -30 -66 -82 -66 l-44 0 0 130 0 130 43 0 c31 0 49 -6 62 -20z"/>
<path d="M2650 3770 l0 -180 105 0 105 0 0 25 c0 24 -2 25 -75 25 l-75 0 0 50
0 50 65 0 c62 0 65 1 65 24 0 29 -16 36 -81 36 l-49 0 0 50 0 50 76 0 c72 0
75 1 72 23 -3 21 -8 22 -105 25 l-103 3 0 -181z"/>
<path d="M2960 3937 c-38 -19 -54 -63 -58 -155 -7 -139 31 -202 121 -202 95 0
129 43 135 171 5 102 -18 172 -63 189 -36 14 -105 12 -135 -3z m116 -58 c16
-18 19 -37 19 -116 0 -88 -2 -96 -24 -114 -29 -24 -53 -24 -82 0 -19 15 -24
30 -27 84 -5 79 3 131 24 152 22 22 68 19 90 -6z"/>
<path d="M1395 3441 c-254 -58 -472 -231 -584 -464 -59 -122 -81 -222 -81
-366 0 -258 75 -439 255 -616 105 -104 198 -163 323 -204 189 -63 364 -62 557
1 284 92 518 365 564 658 21 129 10 311 -24 415 -43 131 -111 238 -217 342
-128 127 -236 191 -388 230 -92 23 -311 26 -405 4z m351 -241 c143 -37 272
-131 349 -254 64 -104 86 -172 92 -291 9 -183 -45 -326 -171 -451 -125 -123
-247 -174 -421 -174 -177 0 -316 60 -436 187 -76 81 -110 141 -138 243 -25 90
-28 223 -6 307 83 323 408 515 731 433z"/>
<path d="M1370 2650 c0 -188 4 -290 10 -290 13 0 592 268 604 280 10 10 -563
300 -594 300 -20 0 -20 -6 -20 -290z"/>
<path d="M550 1838 c-288 -124 -429 -349 -516 -818 -24 -131 -31 -496 -10
-583 49 -210 210 -360 430 -402 116 -22 2145 -22 2263 0 111 21 214 75 288
149 115 116 155 234 155 456 0 461 -114 853 -303 1041 -29 28 -81 71 -117 94
-67 43 -165 84 -176 73 -3 -4 2 -37 11 -73 11 -46 17 -119 19 -233 3 -163 3
-166 27 -181 57 -35 166 -158 197 -221 49 -102 62 -167 62 -321 0 -115 3 -139
17 -150 27 -23 55 -99 55 -149 0 -152 -159 -263 -296 -206 -130 54 -178 218
-97 331 l33 46 -4 127 c-5 147 -17 185 -81 251 -113 118 -282 122 -396 11 -73
-73 -91 -129 -91 -284 0 -103 3 -126 17 -137 44 -37 64 -134 43 -209 -32 -116
-183 -183 -295 -131 -77 36 -135 124 -135 205 0 35 29 104 60 143 18 23 20 40
20 167 0 96 5 161 16 201 56 215 265 394 484 414 l65 6 3 95 c4 117 -23 240
-52 240 -6 0 -38 -18 -71 -41 -314 -212 -728 -238 -1070 -66 -22 11 -70 40
-108 65 -79 51 -88 49 -112 -31 -12 -39 -15 -109 -15 -312 l0 -262 50 -23 c64
-30 163 -132 194 -201 37 -79 52 -177 38 -251 -32 -174 -155 -311 -317 -354
-60 -16 -165 -18 -220 -3 -117 30 -227 121 -286 237 -33 65 -34 71 -34 182 0
110 1 118 34 188 39 82 127 174 198 206 25 11 43 27 47 40 2 11 5 140 5 286 1
204 4 278 16 323 8 32 15 62 15 67 0 13 -28 12 -60 -2z"/>
<path d="M678 867 c-56 -25 -98 -82 -98 -132 0 -56 61 -127 120 -140 37 -8
106 23 134 61 48 67 23 162 -54 202 -49 25 -63 26 -102 9z"/>
</g>
</svg>
