<?xml version="1.0" standalone="no"?>
<!DOCTYPE svg PUBLIC "-//W3C//DTD SVG 20010904//EN"
 "http://www.w3.org/TR/2001/REC-SVG-20010904/DTD/svg10.dtd">
<svg version="1.0" xmlns="http://www.w3.org/2000/svg"
 width="317.000000pt" height="344.000000pt" viewBox="0 0 317.000000 344.000000"
 preserveAspectRatio="xMidYMid meet">

<g transform="translate(0.000000,344.000000) scale(0.100000,-0.100000)"
fill="rgb(194, 37, 73)" stroke="none">
<path d="M1395 3421 c-254 -58 -472 -231 -584 -464 -59 -122 -81 -222 -81
-366 0 -258 75 -439 255 -616 105 -104 198 -163 323 -204 189 -63 364 -62 557
1 284 92 518 365 564 658 21 129 10 311 -24 415 -43 131 -111 238 -217 342
-128 127 -236 191 -388 230 -92 23 -311 26 -405 4z m351 -241 c143 -37 272
-131 349 -254 64 -104 86 -172 92 -291 9 -183 -45 -326 -171 -451 -125 -123
-247 -174 -421 -174 -177 0 -316 60 -436 187 -76 81 -110 141 -138 243 -25 90
-28 223 -6 307 83 323 408 515 731 433z"/>
<path d="M550 1818 c-288 -124 -429 -349 -516 -818 -24 -131 -31 -496 -10
-583 49 -210 210 -360 430 -402 116 -22 2145 -22 2263 0 111 21 214 75 288
149 115 116 155 234 155 456 0 461 -114 853 -303 1041 -29 28 -81 71 -117 94
-67 43 -165 84 -176 73 -3 -4 2 -37 11 -73 11 -46 17 -119 19 -233 3 -163 3
-166 27 -181 57 -35 166 -158 197 -221 49 -102 62 -167 62 -321 0 -115 3 -139
17 -150 27 -23 55 -99 55 -149 0 -152 -159 -263 -296 -206 -130 54 -178 218
-97 331 l33 46 -4 127 c-5 147 -17 185 -81 251 -113 118 -282 122 -396 11 -73
-73 -91 -129 -91 -284 0 -103 3 -126 17 -137 44 -37 64 -134 43 -209 -32 -116
-183 -183 -295 -131 -77 36 -135 124 -135 205 0 35 29 104 60 143 18 23 20 40
20 167 0 96 5 161 16 201 56 215 265 394 484 414 l65 6 3 95 c4 117 -23 240
-52 240 -6 0 -38 -18 -71 -41 -314 -212 -728 -238 -1070 -66 -22 11 -70 40
-108 65 -79 51 -88 49 -112 -31 -12 -39 -15 -109 -15 -312 l0 -262 50 -23 c64
-30 163 -132 194 -201 37 -79 52 -177 38 -251 -32 -174 -155 -311 -317 -354
-60 -16 -165 -18 -220 -3 -117 30 -227 121 -286 237 -33 65 -34 71 -34 182 0
110 1 118 34 188 39 82 127 174 198 206 25 11 43 27 47 40 2 11 5 140 5 286 1
204 4 278 16 323 8 32 15 62 15 67 0 13 -28 12 -60 -2z"/>
<path d="M678 847 c-56 -25 -98 -82 -98 -132 0 -56 61 -127 120 -140 37 -8
106 23 134 61 48 67 23 162 -54 202 -49 25 -63 26 -102 9z"/>
</g>
</svg>
