<?xml version="1.0" standalone="no"?>
<!DOCTYPE svg PUBLIC "-//W3C//DTD SVG 20010904//EN"
 "http://www.w3.org/TR/2001/REC-SVG-20010904/DTD/svg10.dtd">
<svg version="1.0" xmlns="http://www.w3.org/2000/svg"
 width="317.000000pt" height="400.000000pt" viewBox="0 0 317.000000 400.000000"
 preserveAspectRatio="xMidYMid meet">
<metadata>
Created by potrace 1.15, written by Peter Selinger 2001-2017
</metadata>
<g transform="translate(0.000000,400.000000) scale(0.100000,-0.100000)"
fill="rgb(194, 37, 73)" stroke="none">
<path d="M448 3944 c-16 -5 -18 -22 -18 -180 l0 -174 30 0 30 0 0 64 0 65 34
-6 c49 -8 104 13 121 47 24 46 19 124 -9 157 -22 25 -31 28 -97 30 -41 1 -82
-1 -91 -3z"/>
<path d="M710 3770 l0 -180 100 0 100 0 0 25 c0 24 -2 25 -70 25 l-70 0 0 155
0 155 -30 0 -30 0 0 -180z"/>
<path d="M1011 3890 c-28 -75 -71 -244 -71 -276 0 -20 5 -24 30 -24 24 0 30 4
30 23 0 58 9 67 65 67 56 0 65 -9 65 -67 0 -19 5 -23 34 -23 l33 0 -8 48 c-14
74 -47 196 -70 256 -19 52 -23 56 -53 56 -32 0 -34 -3 -55 -60z"/>
<path d="M1186 3923 c3 -16 26 -69 50 -120 37 -77 44 -102 44 -153 l0 -60 30
0 30 0 0 64 c0 54 6 77 40 148 22 45 43 98 46 116 6 30 5 32 -23 32 -27 0 -31
-5 -51 -67 -12 -38 -27 -75 -32 -83 -9 -13 -11 -13 -20 0 -8 12 -34 77 -55
138 -2 6 -18 12 -35 12 -28 0 -30 -2 -24 -27z"/>
<path d="M1560 3928 c0 -34 45 -215 70 -281 20 -54 23 -57 56 -57 30 0 36 5
50 38 22 53 74 258 74 293 0 25 -4 29 -28 29 -27 0 -28 -2 -40 -80 -7 -45 -22
-111 -34 -148 l-21 -67 -18 60 c-11 33 -26 95 -34 138 -18 94 -19 97 -51 97
-18 0 -24 -5 -24 -22z"/>
<path d="M1860 3771 l0 -181 30 0 30 0 -2 178 -3 177 -27 3 -28 3 0 -180z"/>
<path d="M1998 3943 c-16 -4 -18 -21 -18 -179 l0 -174 88 0 c133 0 162 32 162
181 0 99 -19 145 -66 165 -31 13 -128 17 -166 7z m151 -69 c17 -22 21 -41 21
-101 0 -108 -16 -133 -87 -133 l-43 0 0 130 0 130 44 0 c36 0 48 -5 65 -26z"/>
<path d="M2290 3770 l0 -180 105 0 105 0 0 25 c0 24 -2 25 -75 25 l-75 0 0 50
0 50 66 0 65 0 -3 28 c-3 26 -6 27 -65 30 l-63 3 0 49 0 50 76 0 c72 0 75 1
72 23 -3 21 -8 22 -105 25 l-103 3 0 -181z"/>
<path d="M2603 3940 c-34 -14 -56 -67 -61 -150 -7 -131 26 -196 106 -207 103
-14 151 42 152 176 0 141 -33 191 -124 190 -28 0 -61 -4 -73 -9z m113 -61 c16
-18 19 -37 19 -116 0 -88 -2 -96 -24 -114 -13 -10 -31 -19 -41 -19 -10 0 -28
9 -41 19 -22 18 -24 26 -24 114 0 106 15 137 65 137 15 0 35 -9 46 -21z"/>
<path d="M1395 3441 c-254 -58 -472 -231 -584 -464 -59 -122 -81 -222 -81
-366 0 -258 75 -439 255 -616 105 -104 198 -163 323 -204 189 -63 364 -62 557
1 284 92 518 365 564 658 21 129 10 311 -24 415 -43 131 -111 238 -217 342
-128 127 -236 191 -388 230 -92 23 -311 26 -405 4z m351 -241 c143 -37 272
-131 349 -254 64 -104 86 -172 92 -291 9 -183 -45 -326 -171 -451 -125 -123
-247 -174 -421 -174 -177 0 -316 60 -436 187 -76 81 -110 141 -138 243 -25 90
-28 223 -6 307 83 323 408 515 731 433z"/>
<path d="M1370 2650 c0 -188 4 -290 10 -290 13 0 592 268 604 280 10 10 -563
300 -594 300 -20 0 -20 -6 -20 -290z"/>
<path d="M550 1838 c-288 -124 -429 -349 -516 -818 -24 -131 -31 -496 -10
-583 49 -210 210 -360 430 -402 116 -22 2145 -22 2263 0 111 21 214 75 288
149 115 116 155 234 155 456 0 461 -114 853 -303 1041 -29 28 -81 71 -117 94
-67 43 -165 84 -176 73 -3 -4 2 -37 11 -73 11 -46 17 -119 19 -233 3 -163 3
-166 27 -181 57 -35 166 -158 197 -221 49 -102 62 -167 62 -321 0 -115 3 -139
17 -150 27 -23 55 -99 55 -149 0 -152 -159 -263 -296 -206 -130 54 -178 218
-97 331 l33 46 -4 127 c-5 147 -17 185 -81 251 -113 118 -282 122 -396 11 -73
-73 -91 -129 -91 -284 0 -103 3 -126 17 -137 44 -37 64 -134 43 -209 -32 -116
-183 -183 -295 -131 -77 36 -135 124 -135 205 0 35 29 104 60 143 18 23 20 40
20 167 0 96 5 161 16 201 56 215 265 394 484 414 l65 6 3 95 c4 117 -23 240
-52 240 -6 0 -38 -18 -71 -41 -314 -212 -728 -238 -1070 -66 -22 11 -70 40
-108 65 -79 51 -88 49 -112 -31 -12 -39 -15 -109 -15 -312 l0 -262 50 -23 c64
-30 163 -132 194 -201 37 -79 52 -177 38 -251 -32 -174 -155 -311 -317 -354
-60 -16 -165 -18 -220 -3 -117 30 -227 121 -286 237 -33 65 -34 71 -34 182 0
110 1 118 34 188 39 82 127 174 198 206 25 11 43 27 47 40 2 11 5 140 5 286 1
204 4 278 16 323 8 32 15 62 15 67 0 13 -28 12 -60 -2z"/>
<path d="M678 867 c-56 -25 -98 -82 -98 -132 0 -56 61 -127 120 -140 37 -8
106 23 134 61 48 67 23 162 -54 202 -49 25 -63 26 -102 9z"/>
</g>
</svg>
